<?xml version="1.0" encoding="UTF-8" standalone="no"?><svg xmlns="http://www.w3.org/2000/svg" width="566.717" height="226.686" viewBox="0 0 566.71733 226.68571"><defs><clipPath id="a"><path d="M0 595.276h841.89V0H0z"/></clipPath></defs><g clip-path="url(#a)" transform="matrix(1.3333 0 0 -1.3333 -269.014 570.014)"><path d="M201.76 342.363c.03-46.936 76.05-84.952 212.57-84.866 136.522.086 212.496 38.198 212.468 85.133-.03 46.935-76.05 84.967-212.572 84.88-136.52-.085-212.495-38.213-212.466-85.148" fill="#ba1f31" fill-rule="evenodd"/><path d="M354.68 410.944l.733-9.173 1.74.14c1.995.16 3.003 1.383 2.844 3.36l-.235 2.948c-.16 2.014-1.384 3.022-3.344 2.865zm1.556 1.967c3.13.25 5.21-1.315 5.47-4.573l.23-2.875c.256-3.204-1.525-5.134-4.674-5.386l-2.472-.197c-.64-.053-1.192.382-1.243 1.023l-.847 10.6c-.052.642.423 1.16 1.064 1.21zM375.2 406.03l3.448.172-1.987 5.216zm2.356 7.73l4.464-11.032c.064-.162.088-.29.093-.382.026-.53-.358-.937-.91-.964-.402-.02-.798.18-.947.578l-.952 2.51-4.585-.228-.7-2.59c-.11-.41-.483-.65-.868-.67-.55-.027-.973.34-1 .87-.004.093.007.222.054.39l3.333 11.42c.142.447.55.725.973.746.44.022.875-.214 1.043-.647M394.512 414.102l.24-10.227 4.79.112c.552.013.93-.383.94-.897.013-.532-.345-.945-.895-.957l-5.564-.13c-.642-.015-1.168.487-1.182 1.093l-.256 10.96c-.013.57.4.984.95.997.515.012.965-.382.978-.95M422.998 414.248l-.08-11.26c-.005-.55-.41-.932-.944-.928-.55.003-.953.392-.948.943l.07 9.918-1.678-.924c-.147-.09-.35-.163-.533-.16-.55.002-.898.372-.894.887.004.312.115.587.466.786l2.95 1.65c.185.09.37.144.552.143.606-.005 1.045-.45 1.04-1.055M436.28 411.482c-.03-1.102.736-1.895 1.82-1.926 1.083-.03 1.895.718 1.926 1.82.03 1.12-.7 1.876-1.82 1.908-1.12.03-1.894-.682-1.926-1.802m-.476-5.775c-.038-1.34.802-2.172 2.124-2.21 1.322-.037 2.208.746 2.246 2.087.038 1.32-.8 2.19-2.123 2.228-1.322.038-2.208-.783-2.246-2.105m6.113 5.615c-.032-1.12-.665-2.094-1.582-2.656 1.12-.657 1.748-1.85 1.713-3.117-.068-2.37-1.763-3.847-4.168-3.78-2.406.07-4.015 1.64-3.95 4.01.037 1.265.713 2.423 1.888 3.014-.9.614-1.442 1.62-1.41 2.74.06 2.13 1.588 3.54 3.847 3.475 2.257-.065 3.722-1.558 3.662-3.688M476.644 411.504c.05.623-.374 1.098-.98 1.146l-6.15.486c-.55.043-.928-.314-.968-.826-.04-.494.277-.925.827-.97l5.134-.404-3.053-9.9c-.04-.15-.067-.282-.054-.41.056-.585.473-.896 1.04-.843.4.038.677.248.804.666l3.37 10.878h-.003c.015.058.03.116.034.176M459.755 412.818c.035.624-.398 1.09-1.003 1.123l-6.162.348c-.55.03-.92-.335-.95-.848-.027-.495.3-.918.85-.95l5.142-.288-2.828-9.966c-.038-.152-.06-.284-.045-.412.067-.584.49-.885 1.057-.82.4.048.67.264.79.685l3.124 10.952h-.005c.014.057.027.116.03.176M493.694 382.477c.315 1.023-.515 1.932-1.472 1.932H480.03c-1.43-.002-2.592-.906-2.987-2.19l-22.406-72.73c-.287-.93.415-1.96 1.57-1.96h12.063c1.402 0 2.627.947 3.023 2.232zM519.816 382.477c.314 1.023-.515 1.932-1.472 1.932H506.15c-1.43-.002-2.59-.906-2.985-2.19l-22.406-72.73c-.288-.93.414-1.96 1.568-1.96h12.063c1.404 0 2.628.947 3.025 2.232zM375.102 335.294c.112.36-.213.802-.568.833 0 0-13.886 1.13-18.327-2.51-4.732-3.864-5.286-12.177-5.282-12.903 0 0-.366-4.356 4.91-4.353 1.93.002 11.992 0 12.102 0 1.426 0 1.62.944 1.95 2.01zm-22.083 8.17c10.883 2.2 24.284.834 24.284.834.36 0 .643.228.736.528l1.12 3.637c2.204 7.15-7.46 7.036-8.626 7.077h-.028c-8.407.006-19.567-2.37-21.508-3.04-.785-.27-1.083.464-.958.776.723 1.804 2.33 5.222 3.13 7.04.153.35.46 1.09 1.8 1.52 3.09 1.136 13.885 3.497 30.596 2.098 0 0 16.487-1.395 11.91-16.293l-11.68-37.91c-.403-1.293-1.602-2.2-3.02-2.2h-27.83c-18.595-.013-18.448 8.978-18.564 12.31-.208 5.952 1.593 13.768 8.38 19.45 2.65 2.224 6.148 3.337 10.257 4.173M547.9 335.294c.112.36-.213.802-.567.833 0 0-13.886 1.13-18.327-2.51-4.732-3.864-5.286-12.177-5.282-12.903 0 0-.367-4.356 4.91-4.353 1.93.002 11.992 0 12.102 0 1.425 0 1.62.944 1.948 2.01zm-22.082 8.17c10.884 2.2 24.284.834 24.284.834.362 0 .644.228.737.528l1.12 3.637c2.203 7.15-7.46 7.036-8.627 7.077h-.028c-8.407.006-19.567-2.37-21.508-3.04-.785-.27-1.084.464-.958.776.722 1.804 2.33 5.222 3.128 7.04.154.35.462 1.09 1.8 1.52 3.09 1.136 13.886 3.497 30.597 2.098 0 0 16.486-1.395 11.91-16.293l-11.682-37.91c-.402-1.293-1.6-2.2-3.017-2.2h-27.83c-18.597-.013-18.45 8.978-18.566 12.31-.208 5.952 1.593 13.768 8.38 19.45 2.65 2.224 6.15 3.337 10.258 4.173M317.66 356.784c-1.804-3.306-5.302-5.543-9.328-5.546l-19.277-.007c-.444 0-.875.56-.713 1.088l5.27 17.1c.915 2.964.73 2.783 2.354 2.782l21.558-.004c1.667 0 3.056-1.192 3.39-2.76 0 0 1.155-4.652-3.255-12.652m-9.103-33.162c-2.066-3.82-6.12-6.39-10.784-6.394h-19.208c-.43 0-.845.622-.73 1l6.958 22.573c.09.29.49.655.84.656l22.775.008c1.943 0 3.555-1.373 3.945-3.205 0 0 1.322-5.374-3.796-14.638m19.13 58.338h-47.404c-.537 0-2.265 0-2.932-2.164l-21.214-68.837c-.397-1.29.164-3.442 2.597-3.44h48.02c24.493 0 25.15 28.1 25.15 28.1-.002 4.9-3.115 9.078-7.475 10.67l-.042.015c-.14.056-.237.195-.237.333 0 .18.11.32.263.362 3.234 1 6.01 2.294 8.26 4.684l.026.04c6.507 7.143 6.708 18.54 6.708 18.54-.004 6.472-5.25 11.7-11.722 11.696M461.097 361.473c.315 1.023-.515 1.932-1.472 1.932h-12.193c-1.43 0-2.59-.905-2.985-2.188l-15.943-51.726c-.286-.93.416-1.96 1.57-1.96h12.063c1.402 0 2.627.946 3.022 2.232zM466.245 376.745c-.672-4.596-5.115-8.316-9.925-8.31-4.81.006-8.164 3.736-7.492 8.33.672 4.597 5.116 8.317 9.925 8.312 4.81-.007 8.164-3.737 7.492-8.332M438.832 363.037c-5.43 2.006-12.063-1.863-14.104-3.2-.45-.298-.53-.152-.48.013l.8 2.562c.156.624-.192.994-.634.993h-12.98c-1.327 0-2.535-.915-2.91-2.134l-15.962-51.786c-.288-.936.443-1.956 1.554-1.956h12.058c1.43 0 2.65.95 3.04 2.216l10.963 35.57c.694 2.25 3.282 11.244 15.285 7.927.742-.136 1.412-.166 1.706.676.403 1.198 2.41 7.824 2.41 7.824.275.875-.503 1.192-.746 1.297M583.594 357.074c0-.698-.5-1.2-1.44-1.2H580.3v2.465h1.812c.916 0 1.482-.415 1.482-1.223zm-1.418 2.9h-2.813c-.502 0-.917-.413-.917-.915v-6.698c0-.502.415-.916.917-.916s.937.414.937.916v1.92h1.506l1.94-2.422c.242-.306.415-.414.786-.414.437 0 .85.392.85.894 0 .262-.086.436-.238.632l-1.375 1.66c1.047.435 1.7 1.264 1.7 2.55v.045c0 .742-.24 1.374-.697 1.832-.59.588-1.462.915-2.597.915m5.91-4.428c0-3.535-2.755-6.43-6.41-6.43-3.634 0-6.37 2.855-6.37 6.39v.04c0 3.534 2.756 6.43 6.41 6.43 3.635 0 6.37-2.856 6.37-6.39zm-6.368 7.897c-4.43 0-7.92-3.6-7.92-7.897v-.044c0-4.298 3.448-7.853 7.877-7.853 4.43 0 7.92 3.6 7.92 7.897v.044c0 4.298-3.448 7.854-7.877 7.854M209.34 197.404h11.883l-5.916 18.262zm7.922 22.376l11.214-33.23c.103-.31.154-.618.154-.823 0-.977-.72-1.697-1.748-1.697-.72 0-1.44.41-1.7 1.183l-2.88 8.9H208.26l-2.88-8.9c-.258-.772-.978-1.183-1.7-1.183-1.027 0-1.747.72-1.747 1.697 0 .205.05.514.154.823l11.214 33.23c.31.824 1.132 1.338 2.007 1.338.824 0 1.646-.514 1.955-1.338M279.758 219.368c.72-.36 1.028-.874 1.028-1.646 0-.926-.668-1.646-1.542-1.646-.566 0-.978.206-1.544.41-2.366.876-4.166 1.287-6.79 1.287-3.807 0-6.738-2.418-6.738-5.504 0-3.087 1.645-4.58 4.68-6.07l5.968-2.933c3.343-1.697 6.944-3.96 6.944-9.67 0-6.07-4.99-9.568-10.905-9.568-3.396 0-6.33.667-9.158 1.953-.77.36-1.13.874-1.13 1.647 0 .976.667 1.697 1.645 1.697.463 0 .77-.104 1.542-.463 2.212-1.03 4.32-1.49 7.1-1.49 4.01 0 7.303 2.158 7.303 6.12 0 3.6-2.057 5.195-5.35 6.84l-6.018 2.984c-3.653 1.8-6.224 4.32-6.224 8.85 0 5.194 4.373 8.95 10.546 8.95 3.394 0 6.12-.515 8.642-1.75M299.508 219.368v-33.59c0-1.03-.823-1.75-1.8-1.75-.977 0-1.8.72-1.8 1.75v33.59c0 1.03.823 1.75 1.8 1.75.977 0 1.8-.72 1.8-1.75M335.207 219.06c.668-.36 1.08-.978 1.08-1.646 0-.926-.77-1.595-1.75-1.595-.31 0-.772.154-1.08.307-1.492.67-3.96 1.647-6.173 1.647-5.66 0-8.95-3.24-8.95-8.9v-12.602c0-5.607 3.29-8.9 8.95-8.9 2.264 0 4.887.463 6.79 1.184v11.83h-5.812c-1.03 0-1.698.773-1.698 1.75 0 .978.668 1.698 1.698 1.698h7.2c1.237 0 2.214-.926 2.214-2.16v-13.84c0-.873-.514-1.696-1.337-2.055-2.42-.98-5.917-1.75-9.055-1.75-7.716 0-12.552 4.526-12.552 12.396v12.294c0 7.923 4.785 12.398 12.552 12.398 2.778 0 5.71-.874 7.922-2.058M375.945 219.318v-33.334c0-1.08-.875-1.954-1.955-1.954-.772 0-1.44.41-1.85 1.183l-15.64 28.343V185.83c0-1.03-.822-1.8-1.8-1.8-.977 0-1.8.77-1.8 1.8v33.333c0 1.08.874 1.955 1.954 1.955.875 0 1.44-.41 1.904-1.183l15.638-28.345v27.728c0 1.028.822 1.8 1.8 1.8.978 0 1.75-.772 1.75-1.8M415.756 209.697V195.45c0-4.94 3.19-8.077 8.28-8.077 5.094 0 8.335 3.137 8.335 8.076v14.247c0 4.99-3.24 8.076-8.333 8.076-5.092 0-8.28-3.086-8.28-8.076m20.163-.257v-13.682c0-7.254-4.68-11.73-11.883-11.73-7.2 0-11.882 4.476-11.882 11.73v13.682c0 7.253 4.68 11.677 11.882 11.677s11.883-4.424 11.883-11.677M468.736 220.604c1.028 0 1.75-.772 1.75-1.698 0-.978-.722-1.75-1.75-1.75h-13.94v-12.19h13.27c1.03 0 1.75-.72 1.75-1.698 0-.977-.72-1.75-1.75-1.75h-13.27V185.83c0-1.08-.772-1.8-1.8-1.8-1.03 0-1.8.72-1.8 1.8v32.56c0 1.236 1.028 2.214 2.262 2.214zM507.88 219.318V187.99h14.402c1.03 0 1.7-.772 1.7-1.697 0-.978-.67-1.75-1.7-1.75h-15.74c-1.235 0-2.264.978-2.264 2.213v32.562c0 1.028.824 1.8 1.8 1.8.978 0 1.8-.772 1.8-1.8M538.02 209.697V195.45c0-4.94 3.19-8.077 8.283-8.077s8.333 3.137 8.333 8.076v14.247c0 4.99-3.24 8.076-8.333 8.076s-8.282-3.086-8.282-8.076m20.166-.257v-13.682c0-7.254-4.682-11.73-11.883-11.73-7.202 0-11.883 4.476-11.883 11.73v13.682c0 7.253 4.68 11.677 11.883 11.677 7.2 0 11.883-4.424 11.883-11.677M591.106 219.83c.258.824.875 1.287 1.75 1.287.977 0 1.748-.77 1.748-1.646 0-.36-.102-.72-.206-1.08l-10.186-32.407c-.41-1.337-1.233-1.954-2.366-1.954-1.13 0-1.954.616-2.366 1.953l-10.185 32.408c-.102.36-.206.72-.206 1.08 0 .876.77 1.647 1.748 1.647.875 0 1.493-.463 1.75-1.286l9.258-30.04zM624.9 220.604c1.028 0 1.696-.772 1.696-1.698 0-.978-.668-1.75-1.697-1.75h-14.044v-12.19h13.374c1.03 0 1.75-.72 1.75-1.698 0-.977-.72-1.75-1.75-1.75h-13.374V187.99h14.403c1.028 0 1.697-.772 1.697-1.698 0-.977-.67-1.75-1.698-1.75h-15.742c-1.234 0-2.263.927-2.263 2.214v31.635c0 1.287 1.03 2.214 2.263 2.214z" fill="#fff"/></g></svg>