<?xml version="1.0" encoding="utf-8"?>
<!-- Generator: Adobe Illustrator 19.2.0, SVG Export Plug-In . SVG Version: 6.00 Build 0)  -->
<svg version="1.1" id="Layer_1" xmlns="http://www.w3.org/2000/svg" xmlns:xlink="http://www.w3.org/1999/xlink" x="0px" y="0px"
	 viewBox="0 0 225.4 141.9" style="enable-background:new 0 0 225.4 141.9;" xml:space="preserve">
<style type="text/css">
	.st0{fill-rule:evenodd;clip-rule:evenodd;fill:#FFFFFF;}
	.st1{clip-path:url(#SVGID_2_);fill-rule:evenodd;clip-rule:evenodd;fill:#FFDA00;}
	.st2{fill-rule:evenodd;clip-rule:evenodd;fill:#001A49;}
	.st3{fill-rule:evenodd;clip-rule:evenodd;fill:#FFDA00;}
</style>
<g>
	<polygon class="st0" points="112.7,141.9 112.7,141.9 114.7,141.9 116.8,141.9 118.8,141.8 120.9,141.7 123,141.6 125.1,141.5 
		127.2,141.4 129.3,141.2 131.4,141 133.6,140.8 135.7,140.6 137.9,140.3 140.1,140 142.3,139.7 144.5,139.4 146.7,139.1 
		148.9,138.8 151.1,138.4 153.3,138.1 155.5,137.7 157.7,137.3 159.8,136.9 162,136.5 164.2,136 166.4,135.6 168.5,135.1 
		170.7,134.6 172.8,134.2 174.9,133.7 177,133.2 179.1,132.7 181.2,132.1 183.2,131.6 185.3,131.1 187.3,130.5 189.3,130 
		191.3,129.4 193.2,128.9 195.1,128.3 197,127.8 198.9,127.2 200.7,126.6 202.5,126 204.3,125.5 206,124.9 207.7,124.3 209.3,123.7 
		211,123.1 212.5,122.5 214.1,122 215.6,121.4 217.1,120.8 218.5,120.2 219.8,119.7 221.1,119.1 222.4,118.5 223.6,118 225,117.3 
		225.1,115.7 225.1,114.2 225.2,112.8 225.3,111.4 225.3,109.9 225.4,108.4 225.4,106.9 225.4,103.6 225.3,100.3 225.2,97.1 
		225,93.9 224.8,90.7 224.6,87.5 224.3,84.4 224,81.2 223.6,78.1 223.2,75.1 222.8,72 222.3,69 221.8,66 221.2,63 220.7,60 
		220,57.1 219.4,54.2 218.7,51.2 218,48.4 217.2,45.5 216.4,42.6 215.6,39.8 214.8,37 213.9,34.1 213,31.3 212.1,28.5 211.1,25.8 
		210.2,23 209.2,20.3 208.1,17.5 207.1,14.6 206.1,14.4 205.3,14.1 204.5,13.9 203.6,13.6 202.6,13.4 201.6,13.1 200.6,12.8 
		199.5,12.5 198.4,12.2 197.2,11.9 196,11.6 194.7,11.3 193.4,11 192.1,10.6 190.7,10.3 189.3,10 187.9,9.7 186.4,9.3 184.9,9 
		183.3,8.6 181.8,8.3 180.1,8 178.5,7.6 176.8,7.3 175.1,6.9 173.4,6.6 171.7,6.3 169.9,5.9 168.1,5.6 166.3,5.3 164.5,5 162.6,4.7 
		160.8,4.4 158.9,4.1 157,3.8 155,3.5 153.1,3.2 151.1,2.9 149.2,2.7 147.2,2.4 145.2,2.2 143.2,1.9 141.2,1.7 139.2,1.5 137.2,1.3 
		135.1,1.1 133.1,1 131.1,0.8 129,0.7 127,0.5 124.9,0.4 122.9,0.3 120.9,0.2 118.8,0.2 116.8,0.1 114.8,0.1 112.7,0.1 110.7,0.1 
		108.7,0.1 106.6,0.2 104.6,0.2 102.5,0.3 100.5,0.4 98.5,0.5 96.4,0.7 94.4,0.8 92.3,1 90.3,1.1 88.3,1.3 86.3,1.5 84.2,1.7 
		82.2,1.9 80.2,2.2 78.2,2.4 76.3,2.7 74.3,2.9 72.3,3.2 70.4,3.5 68.5,3.8 66.6,4.1 64.7,4.4 62.8,4.7 61,5 59.1,5.3 57.3,5.6 
		55.5,5.9 53.8,6.3 52,6.6 50.3,6.9 48.6,7.3 47,7.6 45.3,8 43.7,8.3 42.1,8.6 40.6,9 39.1,9.3 37.6,9.7 36.2,10 34.7,10.3 
		33.4,10.6 32,11 30.8,11.3 29.5,11.6 28.3,11.9 27.1,12.2 26,12.5 24.9,12.8 23.8,13.1 22.8,13.4 21.9,13.6 21,13.9 20.1,14.1 
		19.3,14.4 18.4,14.6 17.3,17.5 16.3,20.3 15.3,23 14.3,25.8 13.4,28.5 12.4,31.3 11.5,34.1 10.7,37 9.8,39.8 9,42.6 8.2,45.5 
		7.5,48.4 6.8,51.2 6.1,54.2 5.4,57.1 4.8,60 4.2,63 3.7,66 3.2,69 2.7,72 2.2,75.1 1.8,78.1 1.5,81.2 1.2,84.4 0.9,87.5 0.6,90.7 
		0.4,93.9 0.3,97.1 0.2,100.3 0.1,103.6 0.1,106.9 0.1,108.4 0.1,109.9 0.2,111.4 0.2,112.8 0.3,114.2 0.4,115.7 0.5,117.3 1.8,118 
		3,118.5 4.3,119.1 5.6,119.7 7,120.2 8.4,120.8 9.9,121.4 11.4,122 12.9,122.5 14.5,123.1 16.1,123.7 17.8,124.3 19.5,124.9 
		21.2,125.5 23,126 24.8,126.6 26.6,127.2 28.4,127.8 30.3,128.3 32.3,128.9 34.2,129.4 36.2,130 38.2,130.5 40.2,131.1 42.2,131.6 
		44.3,132.1 46.3,132.7 48.4,133.2 50.5,133.7 52.7,134.2 54.8,134.6 56.9,135.1 59.1,135.6 61.3,136 63.4,136.5 65.6,136.9 
		67.8,137.3 70,137.7 72.2,138.1 74.4,138.4 76.6,138.8 78.8,139.1 81,139.4 83.2,139.7 85.4,140 87.5,140.3 89.7,140.6 91.9,140.8 
		94,141 96.2,141.2 98.3,141.4 100.4,141.5 102.5,141.6 104.6,141.7 106.6,141.8 108.7,141.9 110.7,141.9 	"/>
	<g>
		<g>
			<g>
				<defs>
					<rect id="SVGID_1_" x="0.1" y="0.1" width="225.3" height="141.8"/>
				</defs>
				<clipPath id="SVGID_2_">
					<use xlink:href="#SVGID_1_"  style="overflow:visible;"/>
				</clipPath>
				<polygon class="st1" points="112.7,141.9 114.7,141.9 116.8,141.9 118.8,141.8 120.9,141.7 123,141.6 125.1,141.5 127.2,141.4 
					129.3,141.2 131.4,141 133.6,140.8 135.7,140.6 137.9,140.3 140.1,140 142.3,139.7 144.5,139.4 146.7,139.1 148.9,138.8 
					151.1,138.4 153.3,138.1 155.5,137.7 157.7,137.3 159.8,136.9 162,136.5 164.2,136 166.4,135.6 168.5,135.1 170.7,134.6 
					172.8,134.2 174.9,133.7 177,133.2 179.1,132.7 181.2,132.1 183.2,131.6 185.3,131.1 187.3,130.5 189.3,130 191.3,129.4 
					193.2,128.9 195.1,128.3 197,127.8 198.9,127.2 200.7,126.6 202.5,126 204.3,125.5 206,124.9 207.7,124.3 209.3,123.7 
					211,123.1 212.5,122.5 214.1,122 215.6,121.4 217.1,120.8 218.5,120.2 219.8,119.7 221.1,119.1 222.4,118.5 223.6,118 
					225,117.3 225.1,115.7 225.1,114.2 225.2,112.8 225.3,111.4 225.3,109.9 225.4,108.4 225.4,106.9 225.4,103.6 225.3,100.3 
					225.2,97.1 225,93.9 224.8,90.7 224.6,87.5 224.3,84.4 224,81.2 223.6,78.1 223.2,75.1 222.8,72 222.3,69 221.8,66 221.2,63 
					220.7,60 220,57.1 219.4,54.2 218.7,51.2 218,48.4 217.2,45.5 216.4,42.6 215.6,39.8 214.8,37 213.9,34.1 213,31.3 212.1,28.5 
					211.1,25.8 210.2,23 209.2,20.3 208.1,17.5 207.1,14.6 206.1,14.4 205.3,14.1 204.5,13.9 203.6,13.6 202.6,13.4 201.6,13.1 
					200.6,12.8 199.5,12.5 198.4,12.2 197.2,11.9 196,11.6 194.7,11.3 193.4,11 192.1,10.6 190.7,10.3 189.3,10 187.9,9.7 
					186.4,9.3 184.9,9 183.3,8.6 181.8,8.3 180.1,8 178.5,7.6 176.8,7.3 175.1,6.9 173.4,6.6 171.7,6.3 169.9,5.9 168.1,5.6 
					166.3,5.3 164.5,5 162.6,4.7 160.8,4.4 158.9,4.1 157,3.8 155,3.5 153.1,3.2 151.1,2.9 149.2,2.7 147.2,2.4 145.2,2.2 
					143.2,1.9 141.2,1.7 139.2,1.5 137.2,1.3 135.1,1.1 133.1,1 131.1,0.8 129,0.7 127,0.5 124.9,0.4 122.9,0.3 120.9,0.2 
					118.8,0.2 116.8,0.1 114.8,0.1 112.7,0.1 110.7,0.1 108.7,0.1 106.6,0.2 104.6,0.2 102.5,0.3 100.5,0.4 98.5,0.5 96.4,0.7 
					94.4,0.8 92.3,1 90.3,1.1 88.3,1.3 86.3,1.5 84.2,1.7 82.2,1.9 80.2,2.2 78.2,2.4 76.3,2.7 74.3,2.9 72.3,3.2 70.4,3.5 
					68.5,3.8 66.6,4.1 64.7,4.4 62.8,4.7 61,5 59.1,5.3 57.3,5.6 55.5,5.9 53.8,6.3 52,6.6 50.3,6.9 48.6,7.3 47,7.6 45.3,8 
					43.7,8.3 42.1,8.6 40.6,9 39.1,9.3 37.6,9.7 36.2,10 34.7,10.3 33.4,10.6 32,11 30.8,11.3 29.5,11.6 28.3,11.9 27.1,12.2 
					26,12.5 24.9,12.8 23.8,13.1 22.8,13.4 21.9,13.6 21,13.9 20.1,14.1 19.3,14.4 18.4,14.6 17.3,17.5 16.3,20.3 15.3,23 
					14.3,25.8 13.4,28.5 12.4,31.3 11.5,34.1 10.7,37 9.8,39.8 9,42.6 8.2,45.5 7.5,48.4 6.8,51.2 6.1,54.2 5.4,57.1 4.8,60 4.2,63 
					3.7,66 3.2,69 2.7,72 2.2,75.1 1.8,78.1 1.5,81.2 1.2,84.4 0.9,87.5 0.6,90.7 0.4,93.9 0.3,97.1 0.2,100.3 0.1,103.6 0.1,106.9 
					0.1,108.4 0.1,109.9 0.2,111.4 0.2,112.8 0.3,114.2 0.4,115.7 0.5,117.3 1.8,118 3,118.5 4.3,119.1 5.6,119.7 7,120.2 
					8.4,120.8 9.9,121.4 11.4,122 12.9,122.5 14.5,123.1 16.1,123.7 17.8,124.3 19.5,124.9 21.2,125.5 23,126 24.8,126.6 
					26.6,127.2 28.4,127.8 30.3,128.3 32.3,128.9 34.2,129.4 36.2,130 38.2,130.5 40.2,131.1 42.2,131.6 44.3,132.1 46.3,132.7 
					48.4,133.2 50.5,133.7 52.7,134.2 54.8,134.6 56.9,135.1 59.1,135.6 61.3,136 63.4,136.5 65.6,136.9 67.8,137.3 70,137.7 
					72.2,138.1 74.4,138.4 76.6,138.8 78.8,139.1 81,139.4 83.2,139.7 85.4,140 87.5,140.3 89.7,140.6 91.9,140.8 94,141 
					96.2,141.2 98.3,141.4 100.4,141.5 102.5,141.6 104.6,141.7 106.6,141.8 108.7,141.9 110.7,141.9 112.7,141.9 				"/>
			</g>
		</g>
		<path class="st2" d="M112.7,136.4c38.4,0,88-10.3,110-20.2c0.2-3.2,0.4-6.2,0.4-9.5c0-31.8-6.7-63.8-17.6-89.9
			c-13.8-3.9-54.4-11.6-92.8-11.6c-38.4,0-79,7.7-92.8,11.6C9,43,2.3,74.9,2.3,106.7c0,3.3,0.2,6.3,0.4,9.5
			C24.7,126.1,74.3,136.4,112.7,136.4L112.7,136.4z"/>
		<path class="st3" d="M39,110.5V89.2h1.3c4.4,7,8.8,15.2,12.6,21.3H77c0,0,1.6-4.5,3.2-8.4h16.2l3.1,8.4h24.8c0,0,0.1-26.4,0-29.2
			l0,0c4.2,4.3,21.5,19.8,32.7,29.2h13.3c0.2-0.5,1.8-4.4,3.5-8.3H190c1.6,4,3.1,7.8,3.3,8.3l14.2,0l-23.9-54.5h-1.7l-23.1,51.5
			l0.1-51.5H147c0,0,0,25.9,0,29.4h-0.1c-3.5-3.5-21.1-19.6-32.7-29.4h-1.6l0,51.3C111.4,104.6,90,56,90,56l-1.8,0l-22.9,51
			c-0.7-1-13.1-19.5-13.6-20.1v-0.2c0.9-0.3,2.3-1.4,3.6-2.4c2.1-1.7,4.9-5.9,4.9-11.8c0-9.8-6.3-13.7-10.8-15
			c-3.1-0.8-6.5-1.2-10.8-1.2c-1.8,0-5.1,0.1-6.6,0.1c-1.8,0.1-3.7,0.2-4.9,0.3v53.9H39z M177.6,92.1V92c2.8-6.9,3.9-10,4.4-11.8
			h0.1c0.5,1.8,1.5,4.9,4.2,11.8v0.1L177.6,92.1z M84.1,91.9c2.8-6.9,3.9-10,4.4-11.8h0.1C89,81.9,90,85,92.8,91.9V92h-8.7V91.9z
			 M39,80.4V66.8c0.6-0.1,1.2-0.1,2.4-0.1c4.1,0,6.6,2.5,6.6,6.6l0,0.1c0,2.9-1.5,4.9-2.7,5.7c-1.2,0.8-2.7,1.4-4.5,1.4
			C40.2,80.5,39.5,80.5,39,80.4"/>
		<path class="st2" d="M56.7,69.2c-0.3-0.1-0.6-0.4-0.5-1.1c0.1-2,3.5-6.8,9.8-10.1l0,0c0.5-0.3,1.6-0.8,2.9-1.3l-0.4,0.6
			c-3.4,5.6-8,11.9-10.9,12.1h-0.3C57,69.3,56.8,69.3,56.7,69.2 M100.9,58c0,0-2-1.1-4.4-1.8c0,0,58.1-4.6,68.7-4.7h0.4
			c0.1,0,0.2,0,0.3,0c0.3,0.1,3,1.4,5.4,2.3c2.4,0.8,14.6,4.3,19.4-1.3c0.5-0.6,0.5-1.5-0.2-2.1c-0.6-0.6-1.2-1.2-7.6-1.3
			c-0.9,0-1.8,0-2.8,0h-1c-3.5,0-7.7,0.1-12.7,0.4c-7.7-4.1-13.7-9.8-15.1-11.4l0.4-0.1c11.3-3.4,17.1-6.7,17.4-9.8l0-0.1
			c0.1-2.1-2.4-3.9-7.6-5.5c-4.9-1.5-9.5-2-13.7-1.9c-3.5,0-6.8,0.4-9.9,0.9c-6.4,1-13.3,3.6-13.7,6.7c-0.2,1.3,0.2,2.6,1.2,3.7
			c3,3.6,11,5.2,13.5,5.3c0.2,0,0.3,0,0.5,0h0.4c1.9,0,2.3-0.6,2.4-1c0,0,0-0.1,0-0.2c0-0.1-0.1-0.1-0.2-0.1c0,0-0.1,0-0.1,0
			c-0.2,0-0.6,0.1-1.7-0.2h0l0,0h0c-4.2-0.5-11.6-3.3-12.6-6.1c-0.3-0.8-0.3-1.5,0-2.1c0.5-0.9,1.7-1.6,3.7-2
			c5.3-1.2,10.6-1.9,15.8-1.8c1.7,0,3.4,0.1,5,0.2c7,0.6,12.5,2.3,13.6,2.8c1.3,0.6,2,1.2,2,1.4c0.1,1.2-7.4,5.1-14.7,7.2
			c-1.7,0.5-2.9,0.7-3.6,0.7H149c-0.5,0-0.8-0.1-1-0.2c1.3-2.2,1.7-3.5,1.8-3.9c0.1-0.2,0.1-0.4,0.1-0.6c0-0.2,0-0.4-0.1-0.4
			c-0.1-0.1-0.2-0.1-0.3-0.1c-0.5,0-1.2,0.7-1.3,0.8c-1.7,1.7-3.3,4-6.7,9.3l-0.4,0.5c-1.2,1.9-2.2,3.3-3,4.7l-1.3,2.2
			c-0.8,1.3-0.9,1.5-0.8,1.7l0.1,0.1h0.1c0.2,0,2.4-0.9,2.6-1.2c1.1-1.2,1.9-2.4,2.9-4l1.6-2.3c0.7-1,1.4-2,1.9-2.7
			c0.6-0.7,1.1-1.1,1.8-1.2c0.1,0,0.2,0,0.3,0c0.8,0,1.3,0.5,1.3,0.5c4.4,4,9.1,7.5,13.9,10.3c-23.3,1.6-52.1,4.2-63,5.4h0
			c-1.5,0.2-1.9,0.2-2.5,0.3c-0.7,0.1-1.2,0.2-1.5,0.2l-0.2,0l-0.3,0c0,0-0.7,0.2-1.3,0.7c-0.4,0.3,0.2,0.4,0.6,0.4
			C97.1,57.1,100.4,58,100.9,58C100.9,58,100.9,58,100.9,58 M58.1,71.5c1.6-0.1,7.3-1.4,14.4-15.8l0.3-0.6c3.7-1.5,7.5-3,7.5-3
			c-1.5,0.3-4.2,1.1-7,1.9c0.4-0.9,0.9-1.9,1.3-2.9v0h0c3-5.9,5-10.1,5.3-11.4c0.2-0.6-0.1-0.7-0.1-0.7c-0.2,0-0.3-0.1-0.5-0.1
			c-1.3,0-3.2,1.2-3.7,2.1c-0.3,0.6-0.6,1.2-1.4,3.2c-0.2,0.4-3.1,2.5-4.2,3.2c-1.5,0.9-4.5,2.7-7.8,3.9c-5.4,2.1-9.2,2.1-11-0.1
			c-1.6-1.9-1.3-4.4,0.8-7.4c1.7-2.4,4.1-4.5,5.6-5.8l0.8-0.7C60,35.8,70,28.7,77,28.8c2.1,0,3.8,0.7,5,2l0,0l0,0.1
			c0.2,0,0.6,0,1-0.3c0.6-0.4,0.9-1.2,1.1-2.4c0.1-0.8-0.2-1.4-0.8-1.9c-0.8-0.6-2-0.9-3.6-0.8c-2.4,0-5.5,0.7-8.9,2
			c-8.6,3.3-11.9,5.6-14.1,7.7l-0.6,0.6c-2.8,2.6-8.7,7.9-9.2,15.7c-0.1,2.1,0.7,3.6,2.5,4.4c2.3,1,6.1,0.8,10.3-0.6
			c4.9-1.6,13.2-7.4,13.2-7.4L69.8,55l-1.7,0.6c-0.6,0.2-1.2,0.4-1.8,0.6l-0.5,0.2l-0.1,0c-3.6,1.4-6.4,3.3-8.4,5.8
			c-2.2,2.6-3,5.6-2.1,7.6C55.7,70.9,56.7,71.5,58.1,71.5 M181.1,54.3c-6-0.1-9.8-2.1-11.9-3.2c6.3-0.3,12.8-0.4,15-0.5
			c0.2,0,0.4,0,0.5,0C190.1,50.5,187.5,54.3,181.1,54.3 M86.7,47.7c0.1,0.6,0.3,1,0.8,1c0,0,0.1,0,0.1,0h0.2c1.7-0.1,6.3-2.5,5-7.9
			c-0.1-0.6-0.6-0.9-1.1-0.9c-0.7,0-1.7,0.5-2.1,1.4l0.2,0.2c0,0,0.3-0.1,0.6-0.2h0.1c0.5,0,1.1,0.4,0.8,2.2
			c-0.3,1.7-1.6,3.2-2.3,3.3H89c-0.5-0.1-0.5-1.1,0.6-3.6c0,0,0.5-1,0.1-1c-0.2,0-0.5,0.2-1.2,0.9c-1,1-1.6,2.2-1.8,3.3
			c-2.6,2-3.6,2-2.7-1.2c0.6-2.3,1.9-4.4,2-4.6c0,0,0.2-0.7-0.6-0.8c-1-0.1-2,1.4-3.4,2.5c-1.5,1.2-2.1,1.4-2.2,1.7
			c-0.2,0.4,0.1,0.7,0.6,0.5c0.3-0.2,1.4-1,1.9-1c0.2,0,0.3,0.2,0.2,0.7c0,0-0.8,2.8-0.7,3.8c0.1,1.2,0.8,1.4,1.7,1.5
			C84.2,49.6,85.5,48.7,86.7,47.7 M161.6,45c1.7-0.1,4.6-3,4.6-3s-0.1,2.2,0.5,2.2c0,0,0.1,0,0.1,0c0.1,0,0.2-0.1,0.3-0.2l0,0l0,0
			c0.5-0.4,1.3-1.2,1.9-2c1.3-1.4,1.7-2,1.9-2.1c0,0,0,0,0.1,0c0.3,0.1-0.1,2.1-0.3,3.3c0,0.2,0,0.3,0.1,0.3h0.1
			c0.6-0.1,2.3-2,2.3-2c0.5-0.7,0.8-0.9,0.9-0.9h0.1c0.1,0,0.1,0.3,0.1,0.3c-1,4.3,1.3,3.7,1.9,3.1c1.2-1.2,2.6-3.4,2.3-3.5h0
			c0,0-0.1,0-0.2,0.1c-0.5,0.4-1.6,1.4-1.9,1.6c-0.9,0.9-0.8,0-0.8,0s0.5-4,0.6-4.6c0-0.1,0-0.1,0-0.1c-0.4-0.1-2.6,2.2-3.6,3.3
			c-1,1.1-0.7,0.2-0.7,0.2c0.9-3.1,0.7-4.2,0.7-4.2c-0.9-0.2-4.9,5.1-5,5.1c-0.1,0-0.2-1-0.3-2.3c0,0,0-0.7-0.3-0.7c0,0-0.1,0-0.1,0
			c0,0-0.8,0.3-1,0.6c-0.1,0.1-0.1,0.3,0,1c-1,1-2.3,2.1-3.2,2.4c-0.1,0-0.1,0-0.2,0h-0.1c-0.9-0.2,0.9-3.6,2-4.1
			c1-0.4,2.6-0.2,2.2-1.2c-0.1-0.3-0.4-0.4-0.8-0.5h-0.2c-0.6,0-1.3,0.2-2.1,0.5c-1,0.4-3.4,2.3-3.3,5.7c0,1,0.4,1.5,0.9,1.5H161.6z
			 M184.4,41.9c0,0,0,1.8,0.7,1.8c0,0,0.1,0,0.1,0c0.7-0.3,1-0.7,1.6-1.6c0.6-0.9,0.9-1.8,0.9-1.8s-2.7,4.3-2.7-1.1
			c0-0.2-0.2-0.3-0.4-0.3c-0.2,0-0.5,0.2-0.4,0.4c0.1,0.8-0.3,1.3-0.3,1.3h0c-0.7,0.9-1.8,1.9-2.6,2.2c-1.5,0.5,0.2-2.6,1.2-3.3
			c0.8-0.6,1.4-0.7,1.1-1.7c-0.1-0.2-0.2-0.3-0.4-0.3c-0.4,0-1.1,0.3-1.9,1c-0.9,0.8-2.1,1.8-2.6,5.1
			C178.2,47,184.4,41.9,184.4,41.9 M133.7,48c0.3-0.1,0.4-0.5,0.3-1.4c0-0.5,0.4-3.4,1-5.5c0.3-1.2,0.3-1.2,0.3-1.5v0
			c0-0.1-0.1-0.2-0.2-0.3c0,0-0.1,0-0.1,0c-0.5,0-1.2,0.8-1.2,0.8l-0.5,0.5c-0.5,0.6-1,1.1-1.6,1.6c-1,0.8-1.9,1.3-2.2,1.3
			c0,0-0.1,0-0.1,0c0,0-0.2-0.2,0.3-1.3c0.8-1.7,1-2.7,0.7-3.1l0,0l-0.1,0c-0.1,0-0.1,0-0.2,0c-0.9,0-2.6,1.4-4.3,2.8
			c-0.4,0.3-0.8,0.7-1,0.8v0c0-0.3,0.2-1.2,0.8-3.4l0-0.2c0-0.2,0-0.3-0.2-0.4c0,0-0.1,0-0.1,0h-0.1c-0.4,0-1.6,0.7-5.9,4.8
			l-0.1,0.1c-0.3,0.3-0.4,0.3-0.5,0.4v-0.1c0-0.1,0-0.1,0-0.2c0-0.2,1.1-4.2,1.2-4.8v0c0-0.2-0.1-0.2-0.1-0.2c0,0-0.1,0-0.1,0
			c-0.8,0-4.2,3-4.8,3.6l-0.4,0.4c0.8-2.2,1.2-3.5,1.2-4.1c0-0.2,0-0.3,0-0.4l0,0l0,0c0,0-0.1,0-0.1,0h0c-0.3,0-1.1,0.4-3.5,3.3
			c-0.8,1-1.6,2-2.1,2.6c-0.5,0.5-0.8,0.1-0.4-2.3l0,0c0.2-0.8,0-1.1-0.1-1.1h-0.1c-0.1,0-0.3,0.2-0.3,0.3c-0.2,1.1-1.1,1.9-1.2,2.1
			c-0.8,0.7-1.8,1.4-2.6,1.7c-0.1,0-0.1,0-0.2,0h-0.1c-0.9-0.2,1.3-3.7,2.5-4.2c0.9-0.4,1.8-0.1,1.8-1.3c0-0.6-0.3-0.8-0.8-0.8
			c-0.4,0-0.9,0.2-1.3,0.3c-0.9,0.3-3.3,2.1-4.4,6.5c-1,4.4,5.7-1.6,5.7-1.6s-0.3,2.4,0.3,2.5c0,0,0.1,0,0.1,0
			c0.7-0.2,2.6-2.5,3.9-3.6c-0.3,0.8-1,2.7-1.2,3.8l0,0.1c0,0.2,0.1,0.3,0.1,0.3c0.5,0.3,2.6-1.6,4.2-3.2c0.8-0.7,1.2-1,1.4-1.1
			c-0.2,0.7-0.3,1.2-0.4,1.7c-0.1,0.8,0.1,1.3,0.5,1.6c0.7,0.4,1.6,0,2-0.4c2-1.7,3.4-2.8,3.8-2.9c0,0,0,0,0,0c0.2,0.2,0,1-0.1,1.6
			c-0.1,0.9-0.2,1.3,0.1,1.4c0.7,0.3,2.7-1.6,3.3-2.2l0,0c0.6-0.6,1.2-1.1,1.5-1.3c0,0.1-0.1,0.3-0.2,0.6c-0.1,0.1-0.2,0.6-0.2,1.2
			c0,0.5,0,1.1,0.3,1.4c0.3,0.3,0.9,0.3,1.6-0.1c0.7-0.4,1.3-0.7,1.8-1.1l1-0.5l0,0l0,0c0.1-0.1,0.2-0.1,0.2-0.1c0,0,0,0,0,0.2
			c0,0.8,0,1.8,0.3,3.2c0.1,0.5,0.3,1.1,0.7,1.2H133.7z M88.8,34.9c0,0-0.1-0.6-0.4-0.6c-0.1,0-0.3,0.1-0.5,0.3
			c-0.9,1-1.5,1.2-1.6,3c0,0,0.1,0.3,0.4,0.4h0.2C86.9,38,87.7,38.3,88.8,34.9 M137.7,34.4c0.2,0,0.6-0.4,1.3-2.6c0,0,0.1-0.5,0-0.5
			c-0.1,0-0.2,0-0.4,0.2c-0.8,0.8-1,0.9-1.4,2.5C137.2,34,137.3,34.4,137.7,34.4C137.6,34.4,137.7,34.4,137.7,34.4L137.7,34.4z
			 M98.7,46.8l4.2-6c5.7-8.1,6.7-9.6,8.9-10.1c0.1,0,0.2,0,0.3,0h0.2c0.5,0,0.9,0.4,1.2,1.4c0.2,0.9,0.3,2.2,0.2,3.9l0,0.4l-0.1,0.8
			c0.9-1.5,2.4-4.4,2.6-6.5c0-0.6,0-1.1-0.2-1.6c-0.3-0.6-0.9-1-1.9-1c-4.8-0.2-11.7,10-14.8,15.4c-0.2,0.3-1.6,2.8-2.3,2.8
			c-0.1,0-0.2-0.1-0.3-0.2c-0.1-0.2,0-0.7,0.4-2.1c0.4-1.5,0.9-3.6,0.7-4.5c-0.1-0.3-0.2-0.5-0.5-0.6c-0.1,0-0.1,0-0.2,0h-0.2
			c-0.7,0-1.6,0.5-2.1,0.9c0.2,0.3,0.2,0.9,0.2,1.7c-0.1,1.1-0.4,2.5-0.8,4.2c-0.1,0.3-0.1,0.6-0.2,0.9c-0.1,0.9,0.1,1.8,0.5,2.3
			c0.3,0.4,0.7,0.6,1.2,0.6C97,49.3,98.7,46.8,98.7,46.8"/>
		<path class="st3" d="M56.8,68.1c-0.3-0.1-0.6-0.4-0.5-1.1c0.1-2.1,3.5-6.9,9.9-10.3l0,0c0.5-0.3,1.6-0.8,2.9-1.3l-0.4,0.6
			C64.8,62.2,59.6,69.4,56.8,68.1 M101.4,56.6c0,0-2-1.2-4.5-1.8c0,0,58.7-4.7,69.4-4.8h0.4c0.1,0,0.2,0,0.3,0
			c0.3,0.2,3.1,1.5,5.5,2.3c1.4,0.4,6,1.8,10.5,1.8h0.7c3.3-0.1,6.4-0.8,8.4-3.1c0.5-0.6,0.5-1.5-0.2-2.1c-0.6-0.6-1.2-1.2-7.7-1.4
			c-0.9,0-1.8,0-2.8,0h-1c-3.5,0-7.8,0.1-12.8,0.4c-7.8-4.2-13.8-9.9-15.3-11.6l0.4-0.1c11.4-3.5,17.3-6.9,17.6-10l0-0.1
			c0.1-2.2-2.4-4-7.6-5.6c-5-1.5-9.6-2-13.9-2c-3.5,0-6.9,0.4-10,0.9c-6.4,1-13.4,3.7-13.8,6.8c-0.2,1.4,0.2,2.6,1.2,3.8
			c3,3.7,11.1,5.3,13.6,5.4c0.2,0,0.3,0,0.5,0h0.4c1.9,0,2.3-0.6,2.4-1c0,0,0-0.1,0-0.2c0-0.1-0.1-0.1-0.2-0.1c0,0-0.1,0-0.1,0
			c0,0-0.1,0-0.2,0h-0.1c-0.3,0-0.7,0-1.4-0.2h0l0,0c-4.3-0.5-11.7-3.4-12.7-6.2c-0.3-0.8-0.3-1.5,0-2.1c0.5-0.9,1.7-1.6,3.7-2.1
			c5.3-1.3,10.8-1.9,15.9-1.9c1.7,0,3.4,0.1,5.1,0.2c7.1,0.6,12.6,2.4,13.7,2.9c1.3,0.6,2,1.3,2.1,1.5c0.1,1.2-7.5,5.2-14.8,7.3
			c-3.3,1-4.5,0.7-4.9,0.5c1.3-2.3,1.7-3.6,1.8-3.9c0.1-0.2,0.1-0.4,0.1-0.6c0-0.2,0-0.4-0.1-0.4c-0.1-0.1-0.2-0.1-0.3-0.1
			c-0.6,0-1.2,0.7-1.3,0.8c-1.7,1.7-3.3,4.1-6.8,9.5l-0.3,0.6c-1.2,1.9-2.2,3.4-3,4.8l-1.3,2.2c-0.8,1.3-0.9,1.5-0.8,1.7l0,0.1h0.1
			c0.2,0,2.4-1,2.6-1.2c1.1-1.2,1.9-2.5,3-4.1l1.6-2.4c0.7-1.1,1.4-2,2-2.8c0.6-0.8,1.1-1.2,1.8-1.2c0.1,0,0.2,0,0.3,0
			c0.8,0,1.3,0.5,1.4,0.5c4.4,4.1,9.1,7.7,14,10.5c-23.5,1.7-52.6,4.3-63.6,5.5v0c-1.5,0.2-1.9,0.2-2.6,0.3
			c-0.7,0.1-1.2,0.2-1.5,0.2l-0.2,0l-0.3,0c0,0-0.7,0.2-1.4,0.7c-0.4,0.4,0.2,0.4,0.6,0.4C97.6,55.8,100.9,56.6,101.4,56.6
			C101.4,56.6,101.4,56.6,101.4,56.6 M58.2,70.4c1.6-0.1,7.4-1.4,14.5-16.2l0.3-0.6c3.8-1.6,7.6-3.1,7.6-3.1c-1.5,0.3-4.3,1.1-7,1.9
			c0.4-0.9,0.9-1.9,1.3-2.9l0,0v0c3-6,5-10.3,5.4-11.6c0.2-0.6-0.1-0.7-0.1-0.7c-0.2-0.1-0.3-0.1-0.5-0.1c-1.3,0-3.2,1.3-3.8,2.2
			c-0.3,0.6-0.6,1.3-1.4,3.3c-0.2,0.4-3.1,2.6-4.2,3.2c-1.5,0.9-4.6,2.7-7.9,4C56.8,52,53,52,51.2,49.7c-1.6-2-1.3-4.5,0.8-7.5
			c1.7-2.4,4.2-4.6,5.6-5.9l0.8-0.7c1.6-1.5,11.8-8.7,18.8-8.7c2.1,0,3.8,0.7,5,2l0,0l0,0.1c0.2,0,0.6,0,1.1-0.3
			c0.6-0.4,0.9-1.3,1.1-2.4c0.1-0.8-0.2-1.5-0.8-1.9c-0.8-0.6-2-0.9-3.6-0.9c-2.4,0-5.5,0.7-8.9,2c-8.7,3.3-12,5.8-14.2,7.9L56.2,34
			c-2.8,2.6-8.7,8-9.3,16c-0.1,2.2,0.7,3.7,2.6,4.5c2.4,1.1,6.2,0.8,10.4-0.6c5-1.7,13.3-7.6,13.3-7.6l-3.2,7.3l-1.8,0.6
			c-0.6,0.2-1.2,0.4-1.8,0.6L66,55l-0.1,0c-3.6,1.4-6.5,3.4-8.5,5.9c-2.2,2.7-3.1,5.8-2.2,7.8C55.8,69.9,56.8,70.5,58.2,70.4
			 M182.4,52.8c-6-0.1-9.9-2.2-12-3.2c6.3-0.4,13-0.4,15.1-0.5c0.2,0,0.4,0,0.5,0C191.5,49.1,188.9,52.9,182.4,52.8 M87.1,46.2
			c0.1,0.6,0.3,1,0.8,1.1c0,0,0.1,0,0.2,0h0.2c1.7-0.1,6.3-2.6,5.1-8.1c-0.1-0.6-0.6-0.9-1.1-0.9c-0.8,0-1.7,0.5-2.2,1.5l0.2,0.2
			c0,0,0.3-0.1,0.6-0.2H91c0.5,0,1.1,0.4,0.8,2.3c-0.3,1.7-1.6,3.2-2.3,3.3h-0.1c-0.5-0.1-0.5-1.1,0.6-3.7c0,0,0.5-1.1,0.2-1
			c-0.2,0-0.5,0.2-1.2,0.9c-1,1-1.6,2.3-1.8,3.3c-2.7,2-3.6,2.1-2.8-1.3c0.6-2.3,1.9-4.5,2-4.7c0,0,0.2-0.7-0.6-0.8
			c-1-0.1-2,1.5-3.4,2.6c-1.5,1.2-2.1,1.5-2.3,1.7c-0.2,0.4,0.1,0.7,0.6,0.5c0.3-0.2,1.4-1,1.9-1c0.2,0,0.3,0.2,0.2,0.7
			c0,0-0.8,2.9-0.7,3.8c0.1,1.3,0.8,1.4,1.7,1.5C84.5,48.1,85.9,47.2,87.1,46.2 M185.8,40.2c0,0,0,1.9,0.7,1.9c0,0,0.1,0,0.1,0
			c0.8-0.3,1.1-0.8,1.6-1.7c0.6-0.9,0.9-1.9,0.9-1.9s-2.7,4.4-2.7-1.1c0-0.2-0.1-0.3-0.3-0.3h-0.1c-0.2,0-0.5,0.2-0.4,0.4
			c0.1,0.8-0.3,1.3-0.3,1.3h0c-0.8,0.9-1.8,2-2.7,2.3c-1.5,0.5,0.2-2.6,1.2-3.4c0.8-0.6,1.4-0.8,1.1-1.7c-0.1-0.2-0.2-0.3-0.4-0.3
			c-0.5,0-1.2,0.3-1.9,1c-0.9,0.8-2.1,1.8-2.7,5.2C179.5,45.4,185.8,40.2,185.8,40.2 M134.5,46.4c0.3-0.1,0.4-0.5,0.3-1.4
			c0-0.5,0.4-3.4,1.1-5.6c0.3-1.2,0.3-1.2,0.3-1.5v0c0-0.1-0.1-0.2-0.2-0.3c0,0-0.1,0-0.1,0c-0.5,0-1.2,0.8-1.2,0.9l-0.5,0.5
			c-0.5,0.6-1.1,1.1-1.6,1.7c-1,0.8-1.9,1.4-2.2,1.4c0,0-0.1,0-0.1,0c0,0-0.2-0.2,0.3-1.4c0.8-1.7,1-2.7,0.7-3.1l0,0l-0.1,0
			c-0.1,0-0.1,0-0.2,0c-0.9,0-2.6,1.4-4.4,2.9c-0.4,0.3-0.8,0.7-1,0.8v0c0-0.3,0.2-1.2,0.8-3.5l0-0.2c0-0.2,0-0.3-0.2-0.4
			c0,0-0.1-0.1-0.2-0.1h-0.1c-0.4,0-1.6,0.7-6,4.9L120,42c-0.3,0.3-0.4,0.3-0.5,0.4v-0.1l0-0.2c0-0.2,1.1-4.3,1.2-4.9v0
			c0-0.2-0.1-0.2-0.1-0.3c0,0-0.1,0-0.1,0c-0.8,0-4.3,3.1-4.9,3.7c-0.2,0.2-0.3,0.3-0.4,0.4c0.8-2.2,1.2-3.6,1.2-4.2
			c0-0.2,0-0.3,0-0.4l0,0l0,0c0,0-0.1,0-0.1,0h0c-0.3,0-1.1,0.4-3.6,3.4c-0.8,1-1.6,2-2.2,2.7c-0.5,0.5-0.8,0.1-0.4-2.3l0,0
			c0.1-0.9,0-1.1-0.2-1.1c-0.1,0-0.3,0.2-0.3,0.3c-0.2,1.1-1.1,2-1.3,2.1c-0.8,0.7-1.8,1.4-2.6,1.7c-0.1,0-0.1,0-0.2,0h-0.1
			c-0.9-0.1,1.3-3.8,2.5-4.3c0.9-0.4,1.8-0.1,1.9-1.3c0-0.7-0.3-0.9-0.8-0.9c-0.4,0-0.9,0.2-1.3,0.3c-0.9,0.4-3.4,2.1-4.4,6.6
			c-0.3,1.1,0,1.6,0.5,1.6h0.2c1.6-0.1,5.1-3.3,5.1-3.3s-0.3,2.5,0.3,2.5c0,0,0.1,0,0.1,0c0.7-0.2,2.7-2.6,3.9-3.7
			c-0.3,0.8-1,2.7-1.3,3.8l0,0.1c0,0.2,0.1,0.3,0.2,0.3c0.5,0.3,2.6-1.6,4.3-3.2c0.8-0.8,1.2-1,1.4-1.1c-0.2,0.7-0.3,1.3-0.4,1.7
			c-0.1,0.8,0.1,1.4,0.5,1.7c0.7,0.4,1.6,0,2-0.4c2-1.8,3.4-2.9,3.9-3c0,0,0,0,0,0c0.2,0.2,0,1.1-0.1,1.6c-0.1,0.9-0.2,1.3,0.1,1.5
			c0.7,0.3,2.8-1.7,3.4-2.3l0,0c0.6-0.6,1.2-1.2,1.5-1.3c0,0.1-0.1,0.3-0.2,0.6c-0.1,0.1-0.2,0.6-0.3,1.2c0,0.6,0,1.1,0.4,1.4
			c0.3,0.3,0.9,0.3,1.6-0.1c0.7-0.4,1.3-0.7,1.8-1.1l1-0.6h0l0,0c0.1-0.1,0.2-0.1,0.2-0.1c0,0,0,0,0,0.2c0,0.8,0,1.8,0.3,3.2
			c0.1,0.6,0.3,1.2,0.7,1.2H134.5z M167.4,40.3c0,0-0.1,2.3,0.5,2.3c0,0,0.1,0,0.1,0c0.1,0,0.2-0.1,0.3-0.2l0,0l0,0
			c0.5-0.4,1.3-1.3,1.9-2.1c1.3-1.4,1.7-2.1,1.9-2.1c0,0,0,0,0.1,0c0.3,0.1-0.2,2.1-0.3,3.3c0,0.2,0,0.3,0.1,0.3h0.1
			c0.6-0.1,2.4-2,2.4-2c0.5-0.7,0.8-0.9,1-0.9h0.1c0.1,0,0.1,0.3,0.1,0.3c-1,4.4,1.3,3.8,1.9,3.2c1.3-1.2,2.6-3.5,2.4-3.6
			c0,0-0.1,0-0.2,0.1c-0.4,0.4-1.6,1.4-1.9,1.7c-1,1-0.8,0-0.8,0s0.5-4.1,0.6-4.7c0-0.1,0-0.1-0.1-0.1c-0.4-0.1-2.7,2.3-3.6,3.4
			c-0.4,0.4-0.6,0.6-0.7,0.6h0c-0.1,0,0-0.3,0-0.3c0.9-3.2,0.7-4.3,0.7-4.3c-0.9-0.2-5,5.2-5.1,5.2c-0.1,0-0.3-1-0.3-2.3
			c0,0,0-0.7-0.3-0.7c0,0-0.1,0-0.1,0c0,0-0.8,0.3-0.9,0.6c-0.1,0.1-0.1,0.3,0,1c-1,1-2.3,2.2-3.3,2.5c-0.1,0-0.1,0-0.2,0h-0.1
			c-0.9-0.2,0.9-3.7,2-4.1c1-0.4,2.6-0.2,2.2-1.3c-0.1-0.4-0.5-0.5-1-0.5c-0.6,0-1.4,0.2-2.1,0.5c-1,0.4-3.4,2.3-3.3,5.8
			C161.7,46.2,167.4,40.3,167.4,40.3 M89.2,33.1c0,0-0.1-0.6-0.4-0.6c-0.1,0-0.3,0.1-0.5,0.3c-0.9,1-1.6,1.2-1.6,3.1
			c0,0,0.1,0.3,0.4,0.4c0,0,0.2,0,0.2,0c0,0,0,0,0.1,0C87.6,36.3,88.3,35.9,89.2,33.1 M138.7,32.6c0.1,0,0.5-0.4,1.3-2.7
			c0,0,0.1-0.5,0-0.6c-0.1,0-0.2,0.1-0.4,0.2c-0.8,0.8-1,0.9-1.5,2.5C138.1,32.2,138.2,32.6,138.7,32.6
			C138.6,32.6,138.6,32.6,138.7,32.6L138.7,32.6z M99.2,45.2l4.3-6.2c5.7-8.3,6.7-9.8,9-10.3c0.1,0,0.2,0,0.3,0h0.1
			c0.5,0,1,0.4,1.2,1.4c0.2,0.9,0.3,2.3,0.2,4l0,0.5l-0.1,0.8c0.9-1.5,2.5-4.5,2.7-6.7c0-0.6,0-1.1-0.2-1.6c-0.3-0.6-0.9-1-1.9-1
			c-4.8-0.2-11.9,10.2-14.9,15.7c-0.2,0.3-1.6,2.9-2.3,2.8c-0.1,0-0.2-0.1-0.3-0.2c-0.1-0.2,0-0.7,0.4-2.1c0.4-1.6,0.9-3.7,0.7-4.6
			c-0.1-0.3-0.2-0.6-0.5-0.6c-0.1,0-0.1,0-0.2,0h-0.2c-0.7,0-1.6,0.6-2.2,0.9c0.2,0.3,0.3,0.9,0.2,1.7c-0.1,1.1-0.4,2.5-0.8,4.2
			c-0.1,0.3-0.1,0.6-0.2,0.9c-0.1,1,0.1,1.8,0.5,2.3c0.3,0.4,0.7,0.6,1.2,0.6C97.5,47.8,99.2,45.3,99.2,45.2"/>
	</g>
</g>
</svg>
